<svg width="20" height="20" viewBox="0 0 20 20" fill="none" xmlns="http://www.w3.org/2000/svg">
<path d="M17.4665 15.3333C16.6665 15.7333 15.5998 15.4666 15.0665 14.6666L13.5998 12.8H6.39981L4.93314 14.6666C4.26647 15.6 3.06647 15.7333 2.13314 15.0666C1.46647 14.5333 1.1998 13.7333 1.33314 13.0666L2.26647 8.13331C2.53314 6.53331 3.9998 5.33331 5.5998 5.33331H9.33314V3.33331C9.33314 2.26665 10.1331 1.33331 11.1998 1.33331H15.3331C15.7331 1.33331 15.9998 1.59998 15.9998 1.99998C15.9998 2.39998 15.7331 2.66665 15.3331 2.66665H11.3331C10.9331 2.66665 10.6665 2.93331 10.6665 3.19998V5.33331H14.3998C15.9998 5.33331 17.4665 6.53331 17.7331 8.13331L18.6665 13.0666C18.7998 14 18.3998 14.9333 17.4665 15.3333ZM7.99981 8.66665C7.99981 7.59998 7.06647 6.66665 5.9998 6.66665C4.93314 6.66665 3.9998 7.59998 3.9998 8.66665C3.9998 9.73331 4.93314 10.6666 5.9998 10.6666C7.06647 10.6666 7.99981 9.73331 7.99981 8.66665ZM15.9998 8.66665C15.9998 8.26665 15.7331 7.99998 15.3331 7.99998H14.6665V7.33331C14.6665 6.93331 14.3998 6.66665 13.9998 6.66665C13.5998 6.66665 13.3331 6.93331 13.3331 7.33331V7.99998H12.6665C12.2665 7.99998 11.9998 8.26665 11.9998 8.66665C11.9998 9.06665 12.2665 9.33331 12.6665 9.33331H13.3331V9.99998C13.3331 10.4 13.5998 10.6666 13.9998 10.6666C14.3998 10.6666 14.6665 10.4 14.6665 9.99998V9.33331H15.3331C15.7331 9.33331 15.9998 9.06665 15.9998 8.66665Z" fill="black"/>
</svg>
