<svg width="20" height="21" viewBox="0 0 20 21" fill="none" xmlns="http://www.w3.org/2000/svg">
<path d="M11.0501 2.65378C6.80844 2.53246 3.33344 6.07683 3.33344 10.4531H1.84177C1.46677 10.4531 1.28344 10.9211 1.55011 11.1897L3.87511 13.6162C4.04177 13.7895 4.30011 13.7895 4.46677 13.6162L6.79177 11.1897C6.84936 11.1286 6.88827 11.0512 6.90359 10.9671C6.91892 10.8831 6.90998 10.7962 6.87789 10.7174C6.84581 10.6387 6.79203 10.5715 6.72331 10.5245C6.6546 10.4775 6.57403 10.4526 6.49177 10.4531H5.00011C5.00011 7.07341 7.65011 4.34364 10.9168 4.38697C14.0168 4.4303 16.6251 7.14274 16.6668 10.3665C16.7084 13.7549 14.0834 16.5193 10.8334 16.5193C9.49177 16.5193 8.25011 16.0427 7.26677 15.2367C7.10716 15.106 6.9069 15.0408 6.70408 15.0536C6.50126 15.0664 6.31003 15.1562 6.16677 15.3061C5.81677 15.67 5.84177 16.2853 6.23344 16.5973C7.54271 17.674 9.16425 18.2575 10.8334 18.2525C15.0418 18.2525 18.4501 14.6388 18.3334 10.2278C18.2251 6.16349 14.9584 2.76644 11.0501 2.65378ZM10.6251 6.98675C10.2834 6.98675 10.0001 7.2814 10.0001 7.6367V10.8258C10.0001 11.1291 10.1584 11.4151 10.4084 11.571L13.0084 13.1742C13.3084 13.3562 13.6918 13.2522 13.8668 12.9489C14.0418 12.637 13.9418 12.2383 13.6501 12.0563L11.2501 10.5745V7.62803C11.2501 7.2814 10.9668 6.98675 10.6251 6.98675Z" fill="black"/>
</svg>
