<svg width="20" height="20" viewBox="0 0 20 20" fill="none" xmlns="http://www.w3.org/2000/svg">
<path d="M5 11.25V10H6.25V11.25H5ZM1.25 5C1.25 4.33696 1.51339 3.70107 1.98223 3.23223C2.45107 2.76339 3.08696 2.5 3.75 2.5H12.5C13.163 2.5 13.7989 2.76339 14.2678 3.23223C14.7366 3.70107 15 4.33696 15 5V13.125C15 13.2908 15.0658 13.4497 15.1831 13.5669C15.3003 13.6842 15.4592 13.75 15.625 13.75C15.7908 13.75 15.9497 13.6842 16.0669 13.5669C16.1842 13.4497 16.25 13.2908 16.25 13.125V5C16.913 5 17.5489 5.26339 18.0178 5.73223C18.4866 6.20107 18.75 6.83696 18.75 7.5V13.125C18.75 13.9538 18.4208 14.7487 17.8347 15.3347C17.2487 15.9208 16.4538 16.25 15.625 16.25H4.375C3.5462 16.25 2.75134 15.9208 2.16529 15.3347C1.57924 14.7487 1.25 13.9538 1.25 13.125V5ZM4.375 6.25C4.20924 6.25 4.05027 6.31585 3.93306 6.43306C3.81585 6.55027 3.75 6.70924 3.75 6.875C3.75 7.04076 3.81585 7.19973 3.93306 7.31694C4.05027 7.43415 4.20924 7.5 4.375 7.5H11.875C12.0408 7.5 12.1997 7.43415 12.3169 7.31694C12.4342 7.19973 12.5 7.04076 12.5 6.875C12.5 6.70924 12.4342 6.55027 12.3169 6.43306C12.1997 6.31585 12.0408 6.25 11.875 6.25H4.375ZM4.375 8.75C4.20924 8.75 4.05027 8.81585 3.93306 8.93306C3.81585 9.05027 3.75 9.20924 3.75 9.375V11.875C3.75 12.0408 3.81585 12.1997 3.93306 12.3169C4.05027 12.4342 4.20924 12.5 4.375 12.5H6.875C7.04076 12.5 7.19973 12.4342 7.31694 12.3169C7.43415 12.1997 7.5 12.0408 7.5 11.875V9.375C7.5 9.20924 7.43415 9.05027 7.31694 8.93306C7.19973 8.81585 7.04076 8.75 6.875 8.75H4.375ZM9.375 8.75C9.20924 8.75 9.05027 8.81585 8.93306 8.93306C8.81585 9.05027 8.75 9.20924 8.75 9.375C8.75 9.54076 8.81585 9.69973 8.93306 9.81694C9.05027 9.93415 9.20924 10 9.375 10H11.875C12.0408 10 12.1997 9.93415 12.3169 9.81694C12.4342 9.69973 12.5 9.54076 12.5 9.375C12.5 9.20924 12.4342 9.05027 12.3169 8.93306C12.1997 8.81585 12.0408 8.75 11.875 8.75H9.375ZM9.375 11.25C9.20924 11.25 9.05027 11.3158 8.93306 11.4331C8.81585 11.5503 8.75 11.7092 8.75 11.875C8.75 12.0408 8.81585 12.1997 8.93306 12.3169C9.05027 12.4342 9.20924 12.5 9.375 12.5H11.875C12.0408 12.5 12.1997 12.4342 12.3169 12.3169C12.4342 12.1997 12.5 12.0408 12.5 11.875C12.5 11.7092 12.4342 11.5503 12.3169 11.4331C12.1997 11.3158 12.0408 11.25 11.875 11.25H9.375Z" fill="black"/>
</svg>
