<svg width="20" height="21" viewBox="0 0 20 21" fill="none" xmlns="http://www.w3.org/2000/svg">
<g clip-path="url(#clip0_55_36)">
<path d="M16.6668 6.9597H3.3335V5.22651H16.6668V6.9597ZM15.0002 1.76013H5.00016V3.49332H15.0002V1.76013ZM8.5935 18.3121L5.8435 15.4523L7.01016 14.2391L8.5935 15.8856L13.0102 11.2927L14.1768 12.5059L8.5935 18.3121Z" fill="black"/>
<path d="M18.3333 8.69287H1.66667C1.22464 8.69287 0.800716 8.87547 0.488155 9.20051C0.175595 9.52555 0 9.96639 0 10.4261L0 19.092C0 19.5517 0.175595 19.9925 0.488155 20.3176C0.800716 20.6426 1.22464 20.8252 1.66667 20.8252H18.3333C18.7754 20.8252 19.1993 20.6426 19.5118 20.3176C19.8244 19.9925 20 19.5517 20 19.092V10.4261C20 9.96639 19.8244 9.52555 19.5118 9.20051C19.1993 8.87547 18.7754 8.69287 18.3333 8.69287ZM18.3333 19.092H1.66667V10.4261H18.3333V19.092Z" fill="black"/>
</g>
<defs>
<clipPath id="clip0_55_36">
<rect width="20" height="20.7983" fill="white" transform="translate(0 0.0269775)"/>
</clipPath>
</defs>
</svg>
