<svg width="30" height="30" viewBox="0 0 30 30" fill="none" xmlns="http://www.w3.org/2000/svg">
<path d="M15.1845 13.4472C15.1626 13.4192 15.1346 13.3966 15.1026 13.381C15.0706 13.3654 15.0355 13.3573 14.9999 13.3573C14.9643 13.3573 14.9292 13.3654 14.8973 13.381C14.8653 13.3966 14.8373 13.4192 14.8153 13.4472L11.5341 17.5986C11.507 17.6331 11.4903 17.6746 11.4857 17.7182C11.4811 17.7619 11.4888 17.8059 11.5081 17.8453C11.5273 17.8848 11.5573 17.918 11.5945 17.9412C11.6318 17.9644 11.6748 17.9766 11.7187 17.9765H13.8837V25.0781C13.8837 25.207 13.9892 25.3125 14.1181 25.3125H15.8759C16.0048 25.3125 16.1103 25.207 16.1103 25.0781V17.9795H18.2812C18.4775 17.9795 18.5859 17.7539 18.4657 17.6015L15.1845 13.4472Z" fill="black"/>
<path d="M23.7715 10.7432C22.4297 7.2041 19.0107 4.6875 15.0059 4.6875C11.001 4.6875 7.58203 7.20117 6.24023 10.7402C3.72949 11.3994 1.875 13.6875 1.875 16.4062C1.875 19.6436 4.49707 22.2656 7.73145 22.2656H8.90625C9.03516 22.2656 9.14062 22.1602 9.14062 22.0312V20.2734C9.14062 20.1445 9.03516 20.0391 8.90625 20.0391H7.73145C6.74414 20.0391 5.81543 19.6465 5.12402 18.9346C4.43555 18.2256 4.06934 17.2705 4.10156 16.2803C4.12793 15.5068 4.3916 14.7803 4.86914 14.168C5.3584 13.5439 6.04395 13.0898 6.80566 12.8877L7.91602 12.5977L8.32324 11.5254C8.5752 10.8574 8.92676 10.2334 9.36914 9.66797C9.80587 9.10754 10.3232 8.61489 10.9043 8.20605C12.1084 7.35938 13.5264 6.91113 15.0059 6.91113C16.4854 6.91113 17.9033 7.35938 19.1074 8.20605C19.6904 8.61621 20.2061 9.1084 20.6426 9.66797C21.085 10.2334 21.4365 10.8604 21.6885 11.5254L22.0928 12.5947L23.2002 12.8877C24.7881 13.3154 25.8984 14.7598 25.8984 16.4062C25.8984 17.376 25.5205 18.29 24.835 18.9756C24.4988 19.3138 24.0988 19.5819 23.6583 19.7644C23.2178 19.947 22.7454 20.0403 22.2686 20.0391H21.0938C20.9648 20.0391 20.8594 20.1445 20.8594 20.2734V22.0312C20.8594 22.1602 20.9648 22.2656 21.0938 22.2656H22.2686C25.5029 22.2656 28.125 19.6436 28.125 16.4062C28.125 13.6904 26.2764 11.4053 23.7715 10.7432Z" fill="black"/>
</svg>
