<svg width="20" height="22" viewBox="0 0 20 22" fill="none" xmlns="http://www.w3.org/2000/svg">
<path d="M10 14.4707C10.8841 14.4707 11.7319 14.1055 12.357 13.4554C12.9821 12.8054 13.3333 11.9237 13.3333 11.0043C13.3333 10.085 12.9821 9.20331 12.357 8.55324C11.7319 7.90317 10.8841 7.53796 10 7.53796V14.4707Z" fill="black"/>
<path fill-rule="evenodd" clip-rule="evenodd" d="M9.99984 2.33838C5.39734 2.33838 1.6665 6.21812 1.6665 11.0043C1.6665 15.7905 5.39734 19.6703 9.99984 19.6703C14.6023 19.6703 18.3332 15.7905 18.3332 11.0043C18.3332 6.21812 14.6023 2.33838 9.99984 2.33838ZM9.99984 4.07157V7.53795C9.11578 7.53795 8.26794 7.90315 7.64281 8.55323C7.01769 9.2033 6.6665 10.085 6.6665 11.0043C6.6665 11.9237 7.01769 12.8054 7.64281 13.4554C8.26794 14.1055 9.11578 14.4707 9.99984 14.4707V17.9371C11.7679 17.9371 13.4636 17.2067 14.7139 15.9065C15.9641 14.6064 16.6665 12.843 16.6665 11.0043C16.6665 9.16564 15.9641 7.40227 14.7139 6.10213C13.4636 4.80198 11.7679 4.07157 9.99984 4.07157V4.07157Z" fill="black"/>
</svg>
