<svg width="20" height="21" viewBox="0 0 20 21" fill="none" xmlns="http://www.w3.org/2000/svg">
<path d="M8.125 9.80957V15.0091L12.5 12.4094L8.125 9.80957Z" fill="black"/>
<path d="M16.25 18.2589H3.75C3.41858 18.2586 3.10083 18.1215 2.86648 17.8778C2.63213 17.6341 2.50033 17.3037 2.5 16.9591V7.85981C2.50033 7.51517 2.63213 7.18473 2.86648 6.94103C3.10083 6.69733 3.41858 6.56026 3.75 6.55992H16.25C16.5814 6.56026 16.8992 6.69733 17.1335 6.94103C17.3679 7.18473 17.4997 7.51517 17.5 7.85981V16.9591C17.4997 17.3037 17.3679 17.6341 17.1335 17.8778C16.8992 18.1215 16.5814 18.2586 16.25 18.2589ZM3.75 7.85981V16.9591H16.25V7.85981H3.75ZM3.75 3.96014H16.25V5.26003H3.75V3.96014ZM5 1.36035H15V2.66024H5V1.36035Z" fill="black"/>
</svg>
