<svg width="20" height="20" viewBox="0 0 20 20" fill="none" xmlns="http://www.w3.org/2000/svg">
<path d="M16.4406 3.22918L16.4823 3.36252L16.9423 4.96418C16.9839 5.10938 16.9716 5.26475 16.9076 5.40155C16.8435 5.53836 16.7321 5.64735 16.5939 5.70835L16.5139 5.73752L7.57476 8.30002H16.8748C17.0259 8.30028 17.1718 8.3553 17.2855 8.45489C17.3992 8.55448 17.4729 8.6919 17.4931 8.84168L17.4989 8.92502V16.0075C17.499 16.5911 17.2763 17.1527 16.8765 17.5778C16.4767 18.0028 15.9297 18.2594 15.3473 18.295L15.2073 18.2992H4.79142C4.20785 18.2992 3.64625 18.0766 3.22118 17.6768C2.7961 17.2769 2.53957 16.73 2.50392 16.1475L2.49976 16.0075V9.01419L2.06476 7.49669C1.90399 6.9357 1.96329 6.33451 2.23057 5.81575C2.49785 5.29699 2.95297 4.89974 3.50309 4.70502L3.63642 4.66168L13.6481 1.79169C14.2091 1.63092 14.8103 1.69022 15.329 1.9575C15.8478 2.22478 16.245 2.67989 16.4398 3.23002L16.4406 3.22918ZM5.22726 5.50585L3.98059 5.86419C3.73299 5.93523 3.52049 6.0955 3.38414 6.31404C3.24778 6.53258 3.19723 6.79389 3.24226 7.04752L3.26726 7.15168L3.55392 8.15252L3.79976 8.08168L5.22726 5.50668V5.50585ZM9.19059 4.37002L6.92642 5.01918L5.49809 7.59418L7.76309 6.94585L9.19059 4.37002V4.37002ZM13.1556 3.23252L10.8906 3.88252L9.46309 6.45752L11.7264 5.80919L13.1556 3.23252V3.23252ZM14.6948 3.03835L13.4273 5.32169L15.5681 4.70752L15.2814 3.70752C15.2392 3.55952 15.1647 3.42273 15.0633 3.30701C14.9618 3.1913 14.836 3.09954 14.6948 3.03835V3.03835Z" fill="black"/>
</svg>
