<svg width="20" height="21" viewBox="0 0 20 21" fill="none" xmlns="http://www.w3.org/2000/svg">
<path d="M11.5167 19.2668H8.48332C8.29326 19.2669 8.1089 19.1993 7.96082 19.0754C7.81274 18.9516 7.70982 18.7788 7.66915 18.5857L7.32998 16.953C6.87753 16.7469 6.44851 16.4891 6.05082 16.1844L4.51998 16.6913C4.33879 16.7514 4.14328 16.7452 3.96592 16.6738C3.78856 16.6024 3.64003 16.4701 3.54499 16.2987L2.02499 13.5681C1.93094 13.3966 1.89564 13.197 1.92485 13.002C1.95407 12.807 2.04608 12.628 2.18582 12.4944L3.37332 11.3678C3.31932 10.8575 3.31932 10.3425 3.37332 9.83221L2.18582 8.70824C2.04588 8.57459 1.95375 8.39546 1.92453 8.20023C1.8953 8.00499 1.93073 7.80522 2.02499 7.63366L3.54165 4.90129C3.63669 4.72998 3.78523 4.59763 3.96259 4.52622C4.13994 4.45481 4.33545 4.44863 4.51665 4.50872L6.04748 5.01568C6.25082 4.85969 6.46248 4.71411 6.68082 4.58238C6.89165 4.45933 7.10832 4.34754 7.32998 4.24788L7.66999 2.61695C7.71046 2.42387 7.81318 2.25097 7.96111 2.12693C8.10904 2.00289 8.29329 1.93514 8.48332 1.93494H11.5167C11.7067 1.93514 11.8909 2.00289 12.0389 2.12693C12.1868 2.25097 12.2895 2.42387 12.33 2.61695L12.6733 4.24874C13.1255 4.45491 13.5543 4.71271 13.9517 5.01741L15.4833 4.51046C15.6644 4.45059 15.8597 4.45687 16.0369 4.52827C16.2141 4.59967 16.3625 4.7319 16.4575 4.90302L17.9742 7.6354C18.1675 7.9881 18.1008 8.4344 17.8133 8.70911L16.6258 9.83568C16.6798 10.346 16.6798 10.861 16.6258 11.3713L17.8133 12.4979C18.1008 12.7734 18.1675 13.2189 17.9742 13.5716L16.4575 16.3039C16.3624 16.4753 16.2139 16.6076 16.0366 16.679C15.8592 16.7504 15.6637 16.7566 15.4825 16.6965L13.9517 16.1896C13.5543 16.494 13.1255 16.7515 12.6733 16.9574L12.33 18.5857C12.2893 18.7786 12.1866 18.9513 12.0386 19.0752C11.8907 19.199 11.7066 19.2667 11.5167 19.2668ZM6.34998 14.2657L7.03332 14.7857C7.18748 14.9035 7.34748 15.0119 7.51415 15.1106C7.67082 15.2051 7.83082 15.29 7.99665 15.3672L8.77415 15.7216L9.15499 17.5336H10.8467L11.2275 15.7207L12.005 15.3663C12.3442 15.2103 12.6667 15.017 12.9658 14.7891L13.6492 14.2692L15.3508 14.8325L16.1967 13.309L14.8775 12.0585L14.9708 11.1815C15.0125 10.7976 15.0125 10.4102 14.9708 10.0272L14.8775 9.1502L16.1975 7.89711L15.3508 6.37277L13.65 6.93605L12.9658 6.4161C12.6665 6.18705 12.3444 5.9921 12.005 5.83461L11.2275 5.48018L10.8467 3.66813H9.15499L8.77165 5.48104L7.99665 5.83461C7.65681 5.98939 7.33455 6.18297 7.03582 6.41176L6.35165 6.93172L4.65165 6.36844L3.80415 7.89711L5.12332 9.14587L5.02998 10.0237C4.98832 10.4076 4.98832 10.795 5.02998 11.178L5.12332 12.055L3.80415 13.3055L4.64998 14.829L6.34998 14.2657V14.2657ZM9.99665 14.0673C9.1126 14.0673 8.26475 13.7021 7.63963 13.052C7.01451 12.4019 6.66332 11.5202 6.66332 10.6009C6.66332 9.68154 7.01451 8.79986 7.63963 8.14978C8.26475 7.49971 9.1126 7.1345 9.99665 7.1345C10.8807 7.1345 11.7286 7.49971 12.3537 8.14978C12.9788 8.79986 13.33 9.68154 13.33 10.6009C13.33 11.5202 12.9788 12.4019 12.3537 13.052C11.7286 13.7021 10.8807 14.0673 9.99665 14.0673ZM9.99665 8.86769C9.67028 8.86804 9.35119 8.96802 9.07897 9.15524C8.80675 9.34246 8.59337 9.60867 8.46532 9.92085C8.33726 10.233 8.30017 10.5774 8.35863 10.9113C8.41709 11.2453 8.56854 11.554 8.79419 11.7992C9.01983 12.0444 9.30974 12.2153 9.62795 12.2907C9.94616 12.3662 10.2787 12.3428 10.5842 12.2235C10.8897 12.1042 11.1549 11.8942 11.3467 11.6196C11.5385 11.345 11.6486 11.0179 11.6633 10.6789V11.0255V10.6009C11.6633 10.1412 11.4877 9.70037 11.1752 9.37533C10.8626 9.0503 10.4387 8.86769 9.99665 8.86769Z" fill="black"/>
</svg>
