<svg width="20" height="21" viewBox="0 0 20 21" fill="none" xmlns="http://www.w3.org/2000/svg">
<path d="M3.33317 5.24702H1.6665V17.3793C1.6665 18.3326 2.4165 19.1125 3.33317 19.1125H14.9998V17.3793H3.33317V5.24702ZM16.6665 1.78064H6.6665C5.74984 1.78064 4.99984 2.56057 4.99984 3.51383V13.913C4.99984 14.8662 5.74984 15.6462 6.6665 15.6462H16.6665C17.5832 15.6462 18.3332 14.8662 18.3332 13.913V3.51383C18.3332 2.56057 17.5832 1.78064 16.6665 1.78064ZM16.6665 13.913H6.6665V3.51383H16.6665V13.913ZM10.8332 12.1798H12.4998V9.57999H14.9998V7.8468H12.4998V5.24702H10.8332V7.8468H8.33317V9.57999H10.8332V12.1798Z" fill="black"/>
</svg>
